<svg width="78" height="99" viewBox="0 0 78 99" fill="none" xmlns="http://www.w3.org/2000/svg">
<path d="M24 17.9998C24 17.9998 21.1257 11.3405 17 13.5C13.8144 15.1674 15.3192 18.7887 17 21.9998C19.1609 26.1284 26.7688 41.1603 28.3137 44.1119C28.8593 45.1542 31.1154 49.4646 31.1154 49.4646C31.1154 49.4646 21.8823 44.5318 19.5121 44.4342C15.6507 43.7027 12.6859 48.0072 16.4968 50.8572L32.2267 58.2334C32.2267 58.2334 37.7866 61 43.7866 62.5C49.7866 64 56.5 61.8414 60 58.2334C63.5 54.6255 64 46 64 46L53.8083 24.1453C53.8083 24.1453 51.3319 18.4285 47.7414 20.3079C44.1508 22.1873 50.0781 32.72 50.0781 32.72L48.1149 28.6748C48.1149 28.6748 43.7354 18.3139 39.6096 20.4734C37.414 21.6226 37.4642 23.934 39.1449 27.1451M24 17.9998C24 17.9998 32.635 33.4649 36.0801 40.0468M24 17.9998L36.0801 40.0468M36.0801 40.0468C35.7193 39.3574 34.9443 37.8768 33.2897 34.7157M30.9582 30.2614C29.2775 27.0503 29.0038 24.2715 32.1894 22.604C36.3152 20.4445 39.1449 27.1451 39.1449 27.1451M39.1449 27.1451L43.7866 36.0131" stroke="white" stroke-width="2" stroke-linecap="round" stroke-linejoin="round"/>
<path d="M19.1831 91.5868C19.6271 91.5868 20.0411 91.5118 20.4251 91.3618C20.8091 91.2058 21.1751 91.0048 21.5231 90.7588L22.4591 92.0548C22.0451 92.4088 21.5411 92.6968 20.9471 92.9188C20.3591 93.1348 19.7501 93.2428 19.1201 93.2428C18.1481 93.2428 17.3171 93.0388 16.6271 92.6308C15.9371 92.2168 15.4091 91.6378 15.0431 90.8938C14.6771 90.1498 14.4941 89.2828 14.4941 88.2928C14.4941 87.3268 14.6771 86.4658 15.0431 85.7098C15.4151 84.9478 15.9491 84.3478 16.6451 83.9098C17.3411 83.4658 18.1781 83.2438 19.1561 83.2438C19.8041 83.2438 20.4011 83.3398 20.9471 83.5318C21.4931 83.7238 21.9941 84.0088 22.4501 84.3868L21.5231 85.6558C21.1511 85.3978 20.7701 85.2028 20.3801 85.0708C19.9961 84.9328 19.6001 84.8638 19.1921 84.8638C18.4421 84.8638 17.8271 85.1398 17.3471 85.6918C16.8731 86.2438 16.6361 87.1108 16.6361 88.2928C16.6361 89.0848 16.7441 89.7238 16.9601 90.2098C17.1821 90.6898 17.4851 91.0408 17.8691 91.2628C18.2531 91.4788 18.6911 91.5868 19.1831 91.5868ZM29.571 79.6798V90.4078C29.571 90.8458 29.703 91.1578 29.967 91.3438C30.237 91.5238 30.585 91.6138 31.011 91.6138C31.287 91.6138 31.548 91.5838 31.794 91.5238C32.04 91.4638 32.28 91.3888 32.514 91.2988L33.027 92.7028C32.745 92.8468 32.397 92.9728 31.983 93.0808C31.575 93.1888 31.107 93.2428 30.579 93.2428C29.625 93.2428 28.881 92.9758 28.347 92.4418C27.819 91.9018 27.555 91.1638 27.555 90.2278V81.1648H24.684V79.6798H29.571ZM41.381 83.4958V91.5238H43.964V92.9998H36.521V91.5238H39.365V84.9718H36.611V83.4958H41.381ZM39.977 78.8428C40.373 78.8428 40.691 78.9628 40.931 79.2028C41.177 79.4428 41.3 79.7428 41.3 80.1028C41.3 80.4628 41.177 80.7658 40.931 81.0118C40.691 81.2578 40.373 81.3808 39.977 81.3808C39.593 81.3808 39.278 81.2578 39.032 81.0118C38.786 80.7658 38.663 80.4628 38.663 80.1028C38.663 79.7428 38.786 79.4428 39.032 79.2028C39.278 78.9628 39.593 78.8428 39.977 78.8428ZM51.562 91.5868C52.006 91.5868 52.42 91.5118 52.804 91.3618C53.188 91.2058 53.554 91.0048 53.902 90.7588L54.838 92.0548C54.424 92.4088 53.92 92.6968 53.326 92.9188C52.738 93.1348 52.129 93.2428 51.499 93.2428C50.527 93.2428 49.696 93.0388 49.006 92.6308C48.316 92.2168 47.788 91.6378 47.422 90.8938C47.056 90.1498 46.873 89.2828 46.873 88.2928C46.873 87.3268 47.056 86.4658 47.422 85.7098C47.794 84.9478 48.328 84.3478 49.024 83.9098C49.72 83.4658 50.557 83.2438 51.535 83.2438C52.183 83.2438 52.78 83.3398 53.326 83.5318C53.872 83.7238 54.373 84.0088 54.829 84.3868L53.902 85.6558C53.53 85.3978 53.149 85.2028 52.759 85.0708C52.375 84.9328 51.979 84.8638 51.571 84.8638C50.821 84.8638 50.206 85.1398 49.726 85.6918C49.252 86.2438 49.015 87.1108 49.015 88.2928C49.015 89.0848 49.123 89.7238 49.339 90.2098C49.561 90.6898 49.864 91.0408 50.248 91.2628C50.632 91.4788 51.07 91.5868 51.562 91.5868ZM66.1439 83.4958L62.3009 87.7438L66.5489 92.9998H64.0829L59.9969 87.7978L63.7949 83.4958H66.1439ZM59.8529 79.4548V92.9998H57.8369V79.6798L59.8529 79.4548ZM73.4359 80.5798L73.2019 88.7248H71.4919L71.2399 80.5798H73.4359ZM72.3559 90.5158C72.7459 90.5158 73.0699 90.6508 73.3279 90.9208C73.5919 91.1848 73.7239 91.5028 73.7239 91.8748C73.7239 92.2528 73.5919 92.5768 73.3279 92.8468C73.0699 93.1108 72.7459 93.2428 72.3559 93.2428C71.9779 93.2428 71.6569 93.1108 71.3929 92.8468C71.1289 92.5768 70.9969 92.2528 70.9969 91.8748C70.9969 91.5028 71.1289 91.1848 71.3929 90.9208C71.6569 90.6508 71.9779 90.5158 72.3559 90.5158Z" fill="#C778DD"/>
</svg>
