<?xml version="1.0" standalone="no"?>
<!DOCTYPE svg PUBLIC "-//W3C//DTD SVG 20010904//EN"
 "http://www.w3.org/TR/2001/REC-SVG-20010904/DTD/svg10.dtd">
<svg version="1.0" xmlns="http://www.w3.org/2000/svg"
 width="928.000000pt" height="928.000000pt" viewBox="0 0 928.000000 928.000000"
 preserveAspectRatio="xMidYMid meet">
<metadata>
Created by potrace 1.14, written by Peter Selinger 2001-2017
</metadata>
<g transform="translate(0.000000,928.000000) scale(0.100000,-0.100000)"
fill="#000000" stroke="none">
<path d="M896 9194 c-12 -6 -20 -17 -18 -25 4 -15 4 -60 1 -131 -1 -27 1 -51
4 -54 3 -4 2 -14 -3 -24 -5 -10 -6 -20 -3 -24 3 -3 6 -27 5 -54 -5 -112 -5
-133 1 -139 4 -3 2 -13 -3 -22 -5 -10 -5 -23 -1 -30 5 -7 5 -30 1 -51 -4 -21
-4 -44 1 -51 4 -7 4 -20 -1 -30 -5 -9 -6 -19 -3 -23 3 -3 6 -26 5 -51 -1 -25
-3 -65 -4 -90 -1 -25 2 -48 5 -51 3 -4 2 -14 -3 -24 -5 -10 -6 -20 -3 -24 3
-3 6 -27 5 -54 -1 -26 -2 -66 -2 -89 0 -24 0 -50 0 -58 0 -8 0 -22 0 -30 0 -8
0 -34 0 -57 0 -24 0 -63 -1 -88 0 -25 0 -49 1 -55 5 -26 5 -41 -2 -56 -3 -8
-3 -21 2 -29 5 -8 5 -21 0 -31 -5 -9 -6 -19 -3 -23 4 -3 6 -25 5 -49 -5 -112
-5 -127 1 -133 3 -4 2 -14 -3 -24 -5 -10 -6 -20 -3 -24 3 -3 6 -27 5 -54 -1
-26 -2 -66 -2 -89 0 -24 0 -50 0 -58 0 -8 0 -23 0 -32 0 -10 0 -34 -1 -53 -1
-19 -1 -41 0 -47 1 -7 1 -20 1 -28 0 -8 0 -22 0 -30 0 -8 0 -21 1 -27 0 -7 0
-29 0 -48 -1 -60 2 -68 26 -73 13 -2 23 -1 23 3 0 4 17 4 38 1 20 -4 53 -4 72
-1 19 3 45 2 58 -2 13 -4 31 -4 40 1 9 5 26 5 37 1 11 -4 30 -4 41 1 12 4 25
5 28 2 7 -7 86 -10 86 -3 0 7 88 3 100 -5 5 -3 18 -2 27 3 10 5 27 6 38 2 11
-4 30 -4 42 1 12 5 25 4 28 -1 3 -5 18 -5 35 0 16 5 32 5 34 1 3 -4 30 -4 60
-1 32 3 57 2 59 -3 2 -6 11 -6 22 0 11 6 29 7 40 3 11 -4 30 -4 41 1 12 4 25
5 28 2 7 -7 86 -10 86 -3 0 7 88 3 100 -5 5 -3 18 -2 27 3 10 5 27 6 38 2 11
-4 30 -4 42 1 12 5 25 4 28 -1 3 -5 18 -5 35 0 16 5 32 5 34 1 3 -4 30 -4 60
-1 32 3 57 2 59 -3 2 -6 11 -6 22 0 11 6 29 7 40 3 11 -4 30 -4 42 1 12 5 25
4 27 0 3 -5 23 -5 45 -1 21 4 47 3 56 -3 11 -6 21 -5 27 1 6 6 21 7 39 2 16
-5 29 -5 29 0 0 5 13 5 28 0 16 -4 36 -4 45 2 11 6 17 5 17 -2 0 -6 4 -9 9 -5
10 6 80 7 199 3 39 -2 72 0 72 4 0 4 6 5 14 2 16 -6 31 12 18 20 -5 3 -6 26
-2 50 4 25 3 51 -1 58 -4 6 -4 19 1 28 5 9 5 22 1 29 -5 7 -5 30 -1 51 4 21 4
44 -1 51 -4 7 -4 20 1 30 5 9 7 19 3 22 -6 6 -6 27 -1 139 1 27 -2 51 -5 54
-3 4 -2 14 3 24 5 10 6 20 3 24 -3 3 -6 27 -5 54 1 26 3 66 4 89 1 24 -2 46
-5 49 -3 4 -2 14 3 24 5 10 7 20 3 23 -6 6 -6 27 -1 139 1 27 -2 51 -5 54 -3
4 -2 14 3 24 5 10 6 20 3 24 -3 3 -6 26 -5 51 1 25 3 65 4 90 1 25 -2 48 -5
51 -3 4 -2 14 3 24 5 10 7 20 3 23 -6 6 -6 27 -1 139 1 27 -2 51 -5 54 -3 4
-2 14 3 24 5 10 6 20 3 24 -3 3 -6 27 -5 54 5 112 5 133 -1 139 -4 3 -2 13 3
22 5 10 5 23 1 30 -5 7 -5 30 -1 51 4 21 4 44 -1 51 -4 7 -4 20 1 29 5 9 5 22
1 29 -5 7 -5 30 -1 51 4 21 4 44 -1 51 -4 7 -3 21 2 30 5 10 5 20 0 23 -4 3
-5 23 -1 44 3 21 3 47 0 58 -4 10 -6 22 -3 27 4 7 -14 11 -32 7 -21 -5 -96 -3
-102 3 -3 4 -13 2 -23 -3 -10 -5 -20 -6 -24 -3 -3 3 -26 6 -51 5 -25 -1 -65
-3 -90 -4 -25 -1 -48 2 -51 5 -4 3 -14 2 -24 -3 -10 -5 -20 -6 -24 -3 -3 3
-27 6 -54 5 -112 -5 -133 -5 -139 1 -3 4 -13 2 -23 -3 -10 -5 -20 -6 -24 -3
-3 3 -27 6 -54 5 -26 -1 -66 -3 -89 -4 -24 -1 -46 2 -49 5 -4 3 -14 2 -24 -3
-10 -5 -20 -6 -24 -3 -3 3 -27 6 -54 5 -112 -5 -133 -5 -139 1 -3 4 -13 2 -23
-3 -10 -5 -20 -6 -24 -3 -3 3 -26 6 -51 5 -25 -1 -65 -3 -90 -4 -25 -1 -48 2
-51 5 -4 3 -14 2 -24 -3 -10 -5 -20 -6 -24 -3 -3 3 -27 6 -54 5 -112 -5 -133
-5 -139 1 -3 4 -13 2 -23 -3 -10 -5 -20 -6 -24 -3 -3 3 -26 6 -51 5 -25 -1
-65 -3 -90 -4 -25 -1 -48 2 -51 5 -4 3 -14 2 -24 -3 -10 -5 -20 -6 -24 -3 -3
3 -27 6 -54 5 -112 -5 -133 -5 -139 1 -3 4 -13 2 -23 -3 -10 -5 -20 -7 -23 -3
-11 10 -100 8 -121 -3z"/>
<path d="M6085 9190 c-3 -10 -6 -41 -5 -67 1 -55 2 -331 1 -353 -1 -8 -1 -35
0 -60 1 -25 1 -52 0 -60 -1 -8 -1 -35 0 -60 1 -25 1 -51 0 -57 0 -7 -1 -20 -2
-28 0 -13 0 -260 0 -312 0 -10 0 -47 0 -83 0 -36 0 -72 0 -80 0 -8 0 -44 0
-80 0 -36 0 -81 1 -100 1 -19 2 -39 2 -45 0 -5 -1 -75 -1 -155 0 -225 -1 -230
-24 -212 -7 5 -23 6 -37 2 -14 -4 -36 -3 -50 0 -14 4 -34 4 -45 0 -11 -4 -29
-4 -41 0 -11 5 -27 4 -34 0 -8 -5 -18 -6 -22 -4 -8 5 -35 6 -155 3 -28 -1 -56
2 -62 6 -6 3 -11 1 -11 -5 0 -6 -5 -8 -11 -5 -6 4 -32 7 -57 6 -132 -3 -151
-3 -161 3 -5 4 -12 2 -15 -3 -4 -5 -19 -6 -34 -3 -15 4 -40 6 -57 5 -60 -6
-124 -5 -134 2 -6 3 -11 1 -11 -5 0 -6 -5 -8 -11 -5 -6 4 -33 7 -60 6 -27 -1
-71 -1 -98 -2 -27 -1 -54 2 -60 5 -5 4 -12 2 -15 -3 -4 -5 -19 -6 -34 -3 -15
4 -40 6 -57 4 -16 -1 -38 -3 -47 -3 -20 0 -33 -15 -20 -23 5 -3 6 -26 2 -50
-4 -25 -3 -51 1 -58 4 -6 4 -19 -1 -29 -5 -9 -6 -19 -3 -23 3 -3 6 -26 5 -51
-1 -25 -3 -65 -4 -90 -1 -25 2 -48 5 -51 3 -4 2 -14 -3 -24 -5 -10 -6 -20 -3
-24 3 -3 6 -27 5 -54 -5 -112 -5 -133 1 -139 4 -3 2 -13 -3 -22 -5 -10 -5 -23
-1 -30 5 -7 5 -30 1 -51 -4 -21 -4 -44 1 -51 4 -7 4 -20 -1 -30 -5 -9 -6 -19
-3 -23 3 -3 6 -25 5 -49 -1 -23 -3 -63 -4 -89 -1 -27 2 -51 5 -54 3 -4 2 -14
-3 -24 -5 -10 -6 -20 -3 -24 3 -3 6 -27 5 -54 -5 -112 -5 -133 1 -139 4 -3 2
-13 -3 -22 -5 -10 -5 -23 -1 -30 5 -7 5 -30 1 -51 -4 -21 -4 -44 1 -51 4 -7 4
-20 -1 -30 -5 -9 -6 -19 -3 -23 3 -3 6 -26 5 -51 -3 -78 -4 -130 -2 -140 5
-26 5 -41 -2 -56 -3 -8 -3 -21 2 -29 5 -8 5 -21 0 -30 -6 -11 -5 -21 1 -27 14
-14 -27 -57 -43 -47 -13 8 -113 8 -126 0 -4 -2 -14 -1 -20 3 -7 4 -33 5 -57 1
-25 -4 -45 -3 -45 1 0 4 -13 4 -30 -1 -16 -5 -30 -6 -30 -2 0 4 -38 7 -85 7
-47 0 -85 -2 -85 -5 0 -7 -59 -5 -66 3 -3 3 -17 2 -30 -3 -14 -6 -26 -6 -29 0
-4 6 -13 7 -24 1 -9 -5 -23 -6 -30 -1 -8 4 -27 4 -42 0 -16 -5 -29 -5 -29 0 0
5 -13 5 -30 0 -17 -5 -30 -5 -30 0 0 5 -13 5 -29 0 -15 -4 -34 -4 -42 1 -7 4
-18 4 -24 -1 -6 -5 -17 -5 -24 -1 -8 5 -27 5 -42 1 -16 -5 -29 -5 -29 0 0 5
-13 5 -30 0 -17 -5 -30 -5 -30 0 0 5 -13 5 -30 0 -16 -5 -30 -5 -30 -1 0 4
-22 5 -50 1 -27 -3 -55 -3 -62 1 -6 4 -22 3 -35 -2 -13 -5 -23 -5 -23 1 0 5
-12 5 -28 1 -15 -5 -37 -4 -50 0 -13 5 -22 4 -22 -1 0 -5 -8 -6 -17 -3 -12 5
-15 2 -10 -10 3 -9 3 -17 -1 -17 -4 0 -5 -27 -2 -60 3 -33 3 -66 -1 -72 -4 -7
-5 -16 -2 -22 4 -5 6 -29 5 -53 -1 -24 -3 -63 -4 -88 -1 -25 2 -48 5 -51 3 -4
2 -14 -3 -24 -5 -10 -7 -20 -3 -23 6 -6 6 -27 1 -139 -1 -27 2 -51 5 -54 3 -4
2 -14 -3 -24 -5 -10 -6 -20 -3 -24 3 -3 6 -27 5 -54 -1 -26 -2 -66 -2 -89 0
-24 0 -50 0 -58 0 -8 0 -23 0 -32 0 -10 0 -34 -1 -53 -1 -19 -1 -41 0 -47 1
-7 1 -20 1 -28 0 -8 0 -23 0 -32 0 -10 0 -34 -1 -53 -1 -19 -1 -41 0 -47 1 -7
1 -20 1 -28 0 -8 0 -23 0 -32 0 -10 0 -34 -1 -53 -1 -19 -1 -41 0 -47 1 -12 1
-24 1 -58 0 -8 0 -34 0 -57 0 -24 -1 -64 -2 -90 -1 -27 2 -51 5 -54 3 -4 2
-14 -3 -24 -5 -10 -6 -20 -3 -24 3 -3 6 -25 5 -49 -1 -23 -3 -63 -4 -89 -1
-27 2 -51 5 -54 3 -4 2 -14 -3 -24 -5 -10 -7 -20 -3 -23 6 -6 6 -27 1 -139 -1
-27 2 -51 5 -54 3 -4 2 -14 -3 -24 -5 -10 -7 -20 -3 -23 8 -8 8 -91 0 -104
-13 -21 19 -36 73 -34 8 1 29 1 45 0 17 0 35 0 40 0 12 0 133 0 158 0 58 1
143 1 219 0 49 0 92 3 98 6 5 3 10 1 10 -5 0 -6 4 -9 9 -5 12 7 159 10 165 4
3 -3 34 -2 70 1 36 3 66 3 66 0 0 -6 128 -3 146 4 8 3 16 1 18 -3 3 -5 24 -5
46 -1 22 4 40 4 40 0 0 -4 18 -4 40 0 22 4 40 4 40 0 0 -4 17 -4 38 -1 20 3
55 4 77 1 34 -4 40 -9 39 -27 0 -13 3 -23 7 -23 5 0 4 -11 -1 -25 -5 -13 -6
-27 -1 -29 4 -3 5 -26 1 -50 -4 -25 -3 -51 1 -58 4 -6 4 -19 -1 -29 -5 -9 -6
-19 -3 -23 3 -3 6 -26 5 -51 -1 -25 -3 -65 -4 -90 -1 -25 2 -48 5 -51 3 -4 2
-14 -3 -24 -5 -10 -6 -20 -3 -24 3 -3 6 -27 5 -54 -1 -26 -2 -66 -2 -89 0 -24
0 -50 0 -58 0 -8 0 -23 0 -32 0 -10 0 -34 -1 -53 -1 -19 -1 -41 0 -47 1 -7 1
-20 1 -28 0 -8 0 -23 0 -32 0 -10 0 -34 -1 -53 -1 -19 -1 -41 0 -47 1 -12 1
-24 1 -58 0 -8 0 -34 0 -57 0 -24 0 -63 -1 -88 0 -25 0 -49 1 -55 5 -26 5 -41
-2 -56 -3 -8 -3 -21 2 -29 5 -8 5 -21 0 -31 -5 -9 -6 -19 -3 -23 4 -3 6 -25 5
-49 -5 -112 -5 -127 0 -133 3 -3 2 -20 -2 -39 -13 -58 1 -66 110 -65 52 1 106
1 120 0 14 -1 30 -2 35 -2 18 1 149 1 170 1 11 0 66 0 123 1 57 0 107 -2 113
-5 5 -4 9 -3 9 2 0 4 24 7 52 6 29 -1 103 -2 163 -2 184 0 248 -2 257 -7 4 -3
8 -2 8 3 0 4 28 7 62 5 35 -1 99 -4 142 -5 l79 -2 -2 -55 c0 -30 -2 -76 -3
-102 -1 -27 2 -51 5 -54 3 -4 2 -14 -3 -24 -5 -10 -6 -20 -3 -24 8 -7 8 -95 0
-102 -3 -3 -1 -19 3 -35 5 -16 5 -29 1 -29 -4 0 -4 -27 -1 -60 3 -33 3 -66 -1
-72 -4 -7 -5 -16 -2 -22 4 -5 5 -30 4 -55 -1 -25 -1 -57 -1 -71 1 -14 1 -29 1
-35 -4 -65 -3 -106 2 -111 3 -4 2 -14 -3 -24 -5 -10 -6 -20 -3 -24 8 -7 8 -95
0 -102 -3 -3 -1 -19 3 -35 5 -16 5 -29 1 -29 -4 0 -4 -27 -1 -60 3 -33 3 -66
-1 -72 -4 -7 -5 -16 -2 -22 4 -5 5 -30 5 -55 -1 -25 -2 -65 -2 -88 0 -24 0
-50 0 -58 0 -8 0 -22 0 -30 0 -8 0 -34 0 -57 0 -24 0 -63 -1 -88 0 -25 0 -49
1 -55 1 -5 2 -13 1 -17 0 -5 502 -8 1118 -8 1088 0 1119 1 1124 19 2 10 1 25
-4 32 -4 7 -4 20 1 29 5 9 5 22 1 29 -5 7 -5 30 -1 51 4 21 4 44 -1 51 -4 7
-4 20 1 29 5 9 5 22 1 29 -5 7 -5 30 -1 51 4 21 4 44 -1 51 -4 7 -4 20 1 30 5
9 6 19 3 23 -3 3 -6 26 -5 51 1 25 3 65 4 90 1 25 -2 48 -5 51 -3 4 -2 14 3
24 5 10 6 20 3 24 -3 3 -6 27 -5 54 5 112 5 133 -1 139 -4 3 -2 13 3 22 5 10
5 23 1 30 -5 7 -5 30 -1 51 4 21 4 44 -1 51 -4 7 -4 20 1 30 5 9 6 19 3 23 -3
3 -6 26 -5 51 1 25 3 65 4 90 1 25 -2 48 -5 51 -3 4 -2 14 3 24 5 10 6 20 3
24 -3 3 -6 27 -5 54 1 26 2 66 2 90 0 23 0 49 0 57 0 8 0 22 0 30 0 8 0 34 0
58 0 23 1 63 2 89 1 27 -2 51 -5 54 -3 4 -2 14 3 24 5 10 7 20 3 23 -5 6 -7
85 -3 105 5 20 4 49 -2 69 -4 12 -3 25 3 29 7 4 7 10 0 18 -6 7 -6 17 -1 26 5
8 6 18 3 23 -7 11 -10 77 -3 77 4 0 3 50 -2 97 -1 12 -38 26 -38 15 0 -4 -22
-7 -50 -7 -27 0 -50 2 -50 5 0 3 -15 4 -32 3 -38 -2 -85 -3 -110 -3 -10 0 -25
0 -33 0 -8 0 -22 0 -30 0 -8 0 -22 0 -30 0 -8 0 -22 0 -30 0 -8 0 -22 0 -30 0
-8 0 -22 0 -30 0 -8 0 -22 0 -30 0 -8 0 -22 0 -30 0 -8 0 -22 0 -30 0 -8 0
-22 0 -30 0 -8 0 -22 0 -30 0 -8 0 -22 0 -30 0 -8 0 -22 0 -30 0 -8 0 -22 0
-30 0 -8 0 -22 0 -30 0 -8 0 -22 0 -30 0 -8 0 -22 0 -30 0 -8 0 -22 0 -30 0
-8 0 -22 0 -30 0 -8 0 -22 0 -30 0 -8 0 -22 0 -30 0 -8 0 -22 0 -30 0 -8 0
-22 0 -30 0 -8 0 -22 0 -30 0 -8 0 -22 0 -30 0 -8 0 -22 0 -30 0 -8 0 -22 0
-30 0 -8 0 -22 0 -30 0 -8 0 -23 0 -32 0 -10 0 -41 0 -70 1 -29 0 -57 -2 -63
-6 -5 -3 -10 -3 -10 2 0 4 -22 8 -50 8 -27 0 -50 -3 -50 -7 0 -3 -9 -4 -20 -1
-10 3 -19 8 -18 12 0 3 0 8 -1 11 -5 12 -5 90 -1 90 3 0 5 27 5 60 0 33 -4 60
-8 60 -4 0 -3 8 2 18 5 10 6 23 3 29 -4 7 -6 29 -5 50 6 78 6 123 0 129 -3 4
-2 14 3 24 5 10 6 20 3 24 -3 3 -5 27 -4 54 1 26 1 58 1 72 -1 14 -1 30 -1 35
4 65 3 106 -2 111 -3 4 -2 14 3 24 5 10 6 20 3 24 -3 3 -6 26 -5 51 1 25 3 65
4 90 1 25 -2 48 -5 51 -3 4 -2 14 3 24 5 10 7 20 3 23 -6 6 -6 27 -1 139 1 27
-2 51 -5 54 -3 4 -2 14 3 24 5 10 6 20 3 24 -3 3 -6 26 -5 51 1 25 3 65 4 90
1 25 -2 48 -5 51 -3 4 -2 14 3 24 5 10 7 20 3 23 -7 8 -8 91 0 103 6 11 -6 36
-17 35 -3 -1 -8 -1 -11 0 -20 4 -64 2 -78 -4 -9 -3 -19 -2 -22 4 -4 6 -13 6
-23 0 -9 -5 -26 -5 -39 0 -13 5 -25 4 -28 -1 -3 -6 -15 -6 -30 0 -15 6 -27 6
-30 0 -4 -6 -13 -7 -23 -1 -11 6 -24 6 -35 0 -11 -7 -17 -7 -17 0 0 6 -9 8
-22 3 -26 -9 -75 -8 -84 1 -4 4 -15 2 -25 -3 -10 -6 -20 -6 -23 -2 -3 5 -28 6
-56 2 -28 -4 -53 -3 -56 2 -3 4 -13 4 -23 -1 -9 -5 -23 -6 -29 -2 -7 4 -33 5
-58 1 -24 -4 -47 -3 -50 2 -3 4 -13 4 -23 -1 -9 -5 -23 -6 -30 -2 -7 5 -30 5
-51 1 -21 -4 -44 -4 -51 1 -7 4 -20 4 -30 -1 -9 -5 -19 -7 -22 -3 -8 7 -97 10
-97 3 0 -3 -21 -4 -47 -3 -27 1 -48 2 -48 3 0 6 -58 4 -61 -2 -3 -5 -13 -4
-22 1 -11 6 -24 6 -35 0 -12 -7 -17 -6 -17 1 0 6 -4 8 -10 5 -15 -9 -81 -12
-86 -4 -2 5 -12 5 -21 2 -13 -5 -15 -1 -11 25 2 18 1 32 -4 32 -5 0 -4 8 1 19
6 10 7 21 4 25 -3 3 -6 27 -5 54 5 112 5 133 -1 139 -4 3 -2 13 3 23 5 10 6
20 3 24 -3 3 -6 27 -5 54 1 26 3 66 4 89 1 24 -2 46 -5 49 -3 4 -2 14 3 24 5
10 6 20 3 24 -3 3 -6 27 -5 54 5 112 5 133 -1 139 -4 3 -2 13 3 22 5 10 5 23
1 30 -5 7 -5 30 -1 51 4 21 4 44 -1 51 -4 7 -4 20 1 30 5 9 6 19 3 23 -3 3 -6
26 -5 51 1 25 3 65 4 90 1 25 -1 47 -4 51 -3 3 -2 20 2 39 4 20 4 32 -1 29 -8
-4 -3 17 7 37 2 4 20 3 39 -1 21 -5 35 -4 35 2 0 5 4 6 10 3 5 -3 40 -6 77 -6
38 0 97 0 133 0 36 0 79 0 95 0 17 0 50 0 75 1 25 0 63 0 85 -1 22 0 60 0 85
0 25 1 52 1 60 0 8 0 44 0 80 0 36 0 79 0 95 0 26 0 54 0 140 1 29 0 77 -2
100 -4 11 -1 35 1 53 5 17 4 34 3 37 -1 3 -4 22 -4 42 0 20 5 41 7 45 4 13 -8
134 -8 147 0 7 5 8 13 3 19 -4 7 -7 32 -5 57 6 91 6 130 0 136 -3 4 -2 14 3
24 5 10 6 20 3 24 -3 3 -6 26 -5 51 1 25 3 65 4 90 1 25 -2 48 -5 51 -3 4 -2
14 3 24 5 10 7 20 3 23 -6 6 -6 27 -1 139 1 27 -2 51 -5 54 -3 4 -2 14 3 24 5
10 6 20 3 24 -3 3 -6 27 -5 54 5 112 5 133 -1 139 -4 3 -2 13 3 22 5 10 5 23
1 30 -5 7 -5 30 -1 51 4 21 4 44 -1 51 -4 7 -4 20 1 29 5 9 5 22 1 29 -5 7 -5
30 -1 51 4 21 4 44 -1 51 -4 7 -4 20 1 29 5 9 5 22 1 29 -5 7 -5 30 -1 51 4
21 4 44 -1 51 -4 7 -4 20 1 29 5 9 5 22 1 29 -5 7 -5 30 -1 51 4 21 4 44 -1
51 -4 7 -4 20 1 29 5 9 5 22 0 29 -4 8 -4 25 0 40 4 14 4 36 -1 48 -6 16 -3
27 8 39 10 10 19 12 21 6 2 -6 14 -7 32 -2 16 4 31 6 34 3 2 -3 28 -5 55 -4
28 1 73 1 100 2 27 1 53 -1 58 -4 4 -2 17 -1 28 3 11 4 30 4 42 -1 12 -5 25
-4 28 1 3 5 18 5 35 0 16 -5 32 -5 35 0 3 5 18 5 33 1 15 -5 36 -5 47 -1 11 4
32 4 47 -1 16 -4 30 -3 34 2 3 5 10 7 15 3 9 -5 34 -6 156 -3 28 1 56 -2 62
-6 6 -3 11 -1 11 5 0 6 5 8 11 5 13 -9 107 -10 115 -2 3 3 18 1 34 -3 16 -4
31 -6 34 -2 8 7 102 5 116 -3 5 -3 10 -1 10 5 0 6 5 8 11 5 13 -9 107 -10 115
-2 3 3 19 1 35 -3 17 -5 29 -5 29 0 0 5 7 7 16 3 23 -9 45 23 35 51 -4 11 -6
32 -4 46 6 51 6 110 0 116 -3 4 -2 14 3 24 5 10 6 20 3 24 -3 3 -6 27 -5 54 5
112 5 133 -1 139 -4 3 -2 13 3 22 5 10 5 23 1 30 -5 7 -5 30 -1 51 4 21 4 44
-1 51 -4 7 -4 20 1 29 5 9 5 22 1 29 -5 7 -5 30 -1 51 4 21 4 44 -1 51 -4 7
-4 20 1 29 5 9 5 22 1 29 -5 7 -5 30 -1 51 4 21 4 44 -1 51 -4 7 -4 20 1 29 5
9 5 22 1 29 -5 7 -5 30 -1 51 4 21 4 44 -1 51 -4 7 -4 20 1 30 5 9 6 19 3 23
-3 3 -6 26 -5 51 1 25 3 65 4 90 1 25 -2 48 -5 51 -3 4 -2 14 3 24 5 10 6 20
3 24 -3 3 -6 27 -5 54 5 112 5 133 -1 139 -4 3 -2 13 3 22 5 10 5 23 1 30 -5
7 -5 30 -1 51 4 21 4 44 -1 51 -4 7 -4 20 1 30 5 9 6 19 3 23 -3 3 -6 26 -5
51 3 78 4 130 2 140 -5 26 -5 41 2 56 3 8 3 21 -2 29 -5 8 -5 21 1 31 5 11 5
20 0 23 -5 3 -6 21 -2 39 5 18 5 41 1 52 -4 11 -6 23 -3 28 4 7 -14 11 -32 7
-21 -5 -96 -3 -102 3 -3 4 -13 2 -23 -3 -10 -5 -20 -6 -24 -3 -3 3 -26 6 -51
5 -25 -1 -65 -3 -90 -4 -25 -1 -48 2 -51 5 -4 3 -14 2 -24 -3 -10 -5 -20 -6
-24 -3 -3 3 -27 6 -54 5 -112 -5 -133 -5 -139 1 -3 4 -13 2 -23 -3 -10 -5 -20
-6 -24 -3 -3 3 -26 6 -51 5 -25 -1 -65 -3 -90 -4 -25 -1 -48 2 -51 5 -4 3 -14
2 -24 -3 -10 -5 -20 -6 -24 -3 -3 3 -27 6 -54 5 -112 -5 -133 -5 -139 1 -3 4
-13 2 -23 -3 -10 -5 -20 -6 -24 -3 -3 3 -26 6 -51 5 -25 -1 -65 -3 -90 -4 -25
-1 -48 2 -51 5 -4 3 -14 2 -24 -3 -10 -5 -20 -6 -24 -3 -3 3 -27 6 -54 5 -112
-5 -133 -5 -139 1 -3 4 -13 2 -23 -3 -10 -5 -20 -6 -24 -3 -3 3 -26 6 -51 5
-25 -1 -65 -3 -90 -4 -25 -1 -48 2 -51 5 -4 3 -14 2 -24 -3 -10 -5 -20 -6 -24
-3 -3 3 -27 6 -54 5 -112 -5 -133 -5 -139 1 -3 4 -13 2 -23 -3 -10 -5 -20 -6
-24 -3 -6 6 -59 6 -131 0 -16 -1 -40 1 -52 5 -17 5 -23 2 -28 -12z"/>
<path d="M881 6867 c0 -12 -1 -43 -2 -69 -1 -27 1 -51 4 -54 3 -4 2 -14 -3
-24 -5 -10 -6 -20 -3 -24 3 -3 6 -27 5 -54 -1 -26 -2 -66 -2 -89 0 -24 0 -50
0 -58 0 -8 0 -23 0 -32 0 -10 0 -34 -1 -53 -1 -19 -1 -41 0 -47 1 -7 1 -20 1
-28 0 -8 0 -23 0 -32 0 -10 0 -34 -1 -53 -1 -19 -1 -41 0 -47 1 -12 1 -24 1
-58 0 -8 0 -34 0 -57 0 -24 0 -63 -1 -88 0 -25 0 -49 1 -55 5 -26 5 -41 -2
-56 -3 -8 -3 -21 2 -29 5 -8 5 -21 0 -31 -5 -9 -6 -19 -3 -23 4 -3 6 -25 5
-49 -5 -112 -5 -127 1 -133 3 -4 2 -14 -3 -24 -5 -10 -6 -20 -3 -24 3 -3 6
-27 5 -54 -5 -112 -5 -133 1 -139 4 -3 2 -13 -3 -23 -5 -10 -6 -20 -3 -24 3
-3 6 -26 5 -51 -1 -25 -3 -65 -4 -90 -1 -25 2 -48 5 -51 3 -4 2 -14 -3 -24 -5
-10 -6 -20 -3 -24 3 -3 6 -27 5 -54 -5 -112 -5 -133 1 -139 4 -3 2 -13 -3 -22
-5 -10 -5 -23 -1 -30 5 -7 5 -30 1 -51 -4 -21 -4 -44 1 -51 4 -7 3 -21 -2 -31
-5 -10 -6 -18 -1 -18 5 0 6 -14 4 -32 -4 -26 -2 -30 11 -25 9 3 18 3 21 -1 2
-4 22 -6 43 -4 21 1 44 3 51 2 15 0 38 0 55 0 6 1 36 -1 65 -2 28 -2 52 0 52
4 0 4 14 3 30 -2 17 -5 30 -5 30 -1 0 4 20 5 45 1 25 -4 45 -3 45 1 0 5 11 4
25 -1 15 -6 27 -6 30 0 3 5 15 6 28 1 12 -5 32 -5 45 0 13 5 21 5 18 1 -5 -8
149 -6 171 2 7 3 13 1 13 -4 0 -8 7 -8 45 0 6 1 12 1 15 0 15 -5 73 -4 76 2 3
4 16 3 29 -2 16 -6 25 -6 25 0 0 6 9 6 23 1 13 -5 30 -5 37 -1 8 5 22 4 31 -1
11 -6 20 -5 24 1 4 6 12 7 22 1 9 -5 29 -5 45 -1 15 5 28 5 28 0 0 -9 32 -6
49 5 5 3 12 1 16 -4 4 -7 15 -7 30 -1 14 5 25 6 25 2 0 -5 23 -6 50 -2 28 4
53 3 56 -2 3 -4 13 -4 23 1 10 6 23 6 31 1 8 -5 18 -6 24 -3 11 7 76 10 76 3
0 -7 54 -5 66 2 5 3 18 2 29 -2 11 -4 34 -4 52 1 18 4 33 3 33 -1 0 -8 7 -8
45 0 6 1 12 1 15 0 15 -5 73 -4 76 2 3 4 16 3 29 -2 17 -6 25 -6 25 1 0 6 5 7
10 4 14 -9 100 -11 100 -3 0 4 14 3 30 -2 17 -5 30 -5 30 0 0 5 10 6 22 1 12
-4 37 -5 55 -1 19 5 33 4 35 -2 2 -6 11 -3 21 6 12 13 14 23 7 41 -6 15 -6 27
1 30 5 4 6 11 3 17 -8 13 -11 98 -4 98 3 0 3 27 0 60 -3 33 -3 66 1 72 4 7 5
16 2 22 -4 5 -6 29 -5 53 1 24 3 63 4 88 1 25 -2 48 -5 51 -3 4 -2 14 3 24 5
10 7 20 3 23 -6 6 -6 27 -1 139 1 27 -2 51 -5 54 -3 4 -2 14 3 24 5 10 6 20 3
24 -3 3 -6 26 -5 51 1 25 3 65 4 90 1 25 -2 48 -5 51 -3 4 -2 14 3 24 5 10 7
20 3 23 -6 6 -6 27 -1 139 1 27 -2 51 -5 54 -3 4 -2 14 3 24 5 10 6 20 3 24
-3 3 -6 27 -5 54 5 112 5 133 -1 139 -4 3 -2 13 3 22 5 10 5 23 1 30 -5 7 -5
30 -1 51 4 21 4 44 -1 51 -4 7 -4 20 1 29 5 9 5 22 1 29 -5 7 -5 30 -1 51 4
21 4 44 -1 51 -4 7 -4 20 1 29 5 9 5 22 1 29 -5 7 -5 30 -1 51 4 21 4 44 -1
51 -4 7 -4 20 1 29 5 9 5 22 1 29 -5 7 -5 30 -1 51 4 21 4 44 -1 51 -4 7 -3
21 2 31 5 10 6 18 1 18 -4 0 -7 14 -6 30 2 28 0 30 -34 31 -21 1 -46 2 -57 3
-11 0 -35 -2 -52 -5 -19 -4 -33 -3 -33 3 0 5 -4 7 -9 3 -5 -3 -49 -5 -98 -5
-48 1 -97 1 -108 1 -11 0 -67 0 -125 0 -130 0 -121 0 -200 0 -36 0 -86 0 -112
1 -27 1 -50 -1 -54 -4 -3 -3 -20 -2 -39 2 -19 4 -36 6 -39 3 -4 -4 -67 -4
-188 -1 -27 1 -50 -1 -54 -4 -3 -3 -20 -2 -39 2 -19 4 -36 6 -39 3 -4 -4 -67
-4 -188 -1 -27 1 -50 -1 -54 -4 -3 -3 -20 -2 -39 2 -19 4 -36 6 -39 3 -4 -4
-67 -4 -188 -1 -27 1 -50 -1 -54 -4 -3 -3 -20 -2 -39 2 -19 4 -36 6 -39 3 -4
-4 -42 -4 -199 -1 -26 0 -50 -2 -53 -5 -3 -3 -19 -1 -35 3 -25 8 -29 6 -28
-13z"/>
<path d="M891 4560 c-11 -6 -17 -70 -11 -105 1 -5 1 -30 1 -55 -1 -25 -1 -64
-1 -87 0 -24 0 -50 0 -58 0 -8 0 -22 0 -30 0 -8 0 -34 0 -57 0 -24 0 -63 -1
-88 0 -25 0 -49 1 -55 5 -26 5 -41 -2 -56 -3 -8 -3 -21 2 -29 5 -8 5 -21 0
-31 -5 -9 -6 -19 -3 -23 4 -3 6 -25 5 -49 -5 -112 -5 -127 1 -133 3 -4 2 -14
-3 -24 -5 -10 -6 -20 -3 -24 3 -3 6 -27 5 -54 -5 -112 -5 -133 1 -139 4 -3 2
-13 -3 -22 -5 -10 -5 -23 -1 -30 5 -7 5 -30 1 -51 -4 -21 -4 -44 1 -51 4 -7 4
-20 -1 -29 -5 -9 -5 -22 -1 -29 5 -7 5 -30 1 -51 -4 -21 -4 -44 1 -51 4 -7 4
-20 -1 -30 -5 -9 -6 -19 -3 -23 3 -3 6 -26 5 -51 -1 -25 -3 -65 -4 -90 -1 -25
2 -48 5 -51 3 -4 2 -14 -3 -24 -5 -10 -6 -20 -3 -24 3 -3 6 -27 5 -54 -1 -26
-2 -66 -2 -89 0 -24 0 -50 0 -58 0 -8 0 -23 0 -32 0 -10 0 -34 -1 -53 -1 -19
-1 -41 0 -47 1 -7 1 -20 1 -28 0 -8 0 -23 0 -32 0 -33 0 -74 -1 -81 -1 -4 -1
-19 0 -33 1 -21 6 -26 24 -25 12 1 27 -2 34 -6 6 -5 14 -5 17 1 4 6 16 7 29 3
24 -8 79 -7 103 2 8 3 14 0 14 -6 0 -7 4 -7 13 0 6 5 21 6 32 2 11 -4 29 -4
40 0 11 4 31 4 45 0 14 -4 37 -3 52 1 15 4 30 4 33 -1 3 -5 19 -5 35 0 17 5
30 5 30 1 0 -8 65 -5 80 4 5 3 11 1 14 -4 4 -6 18 -6 36 -1 17 5 30 5 30 1 0
-8 65 -5 80 4 5 3 11 1 14 -4 4 -6 18 -6 36 -1 17 5 30 5 30 1 0 -8 65 -5 80
4 5 3 11 1 14 -4 4 -6 18 -6 36 -1 17 5 30 6 30 2 0 -4 24 -6 53 -4 99 5 145
4 156 -3 6 -3 11 -2 11 4 0 6 9 8 23 3 24 -8 79 -7 103 2 8 3 14 0 14 -6 0 -9
3 -9 11 -1 7 7 20 8 34 3 12 -4 28 -4 35 0 8 5 18 6 23 3 5 -3 35 -5 66 -4
132 3 150 3 160 -4 6 -3 11 -2 11 4 0 6 9 8 23 3 24 -8 79 -7 103 2 8 3 14 0
14 -6 0 -9 3 -9 11 -1 7 7 20 8 34 3 12 -4 28 -4 35 0 8 5 18 6 23 3 8 -5 38
-5 160 -1 23 0 53 -3 66 -7 14 -4 21 -3 18 3 -4 6 8 7 33 2 29 -5 40 -4 44 6
3 8 2 14 -2 14 -4 0 -6 24 -4 52 5 112 5 138 -1 144 -3 4 -2 14 3 24 5 10 6
20 3 24 -3 3 -6 27 -5 54 1 26 3 66 4 89 1 24 -2 46 -5 49 -3 4 -2 14 3 23 5
10 5 23 1 30 -5 7 -5 30 -1 51 4 21 4 44 -1 51 -4 7 -4 20 1 30 5 9 7 19 3 22
-6 6 -6 27 -1 139 1 27 -2 51 -5 54 -3 4 -2 14 3 24 5 10 6 20 3 24 -3 3 -6
26 -5 51 1 25 3 65 4 90 1 25 -2 48 -5 51 -3 4 -2 14 3 23 5 10 5 23 1 30 -5
7 -5 30 -1 51 4 21 4 44 -1 51 -4 7 -4 20 1 30 5 9 7 19 3 22 -6 6 -6 27 -1
139 1 27 -2 51 -5 54 -3 4 -2 14 3 24 5 10 6 20 3 24 -3 3 -6 27 -5 54 1 26 3
66 4 89 1 24 -2 46 -5 49 -3 4 -2 14 3 23 5 10 5 23 1 30 -5 7 -5 30 -1 51 4
21 4 44 -1 51 -4 7 -4 20 1 29 5 9 5 22 1 29 -5 7 -5 30 -1 51 4 21 4 44 -1
51 -4 7 -4 20 1 29 5 9 5 22 1 29 -5 7 -5 27 -1 45 4 18 3 42 -1 54 -5 12 -5
22 -1 23 4 1 -4 4 -18 8 -14 5 -29 5 -35 3 -12 -7 -125 -9 -125 -2 0 6 -99 2
-117 -5 -7 -2 -15 0 -18 6 -4 5 -10 7 -15 4 -4 -3 -50 -5 -101 -5 -52 1 -112
1 -134 0 -47 0 -120 1 -155 2 -14 0 -45 0 -70 -1 -25 -1 -58 -1 -75 0 -16 1
-34 0 -40 -1 -13 -2 -161 0 -202 4 -18 1 -33 0 -33 -3 0 -6 -129 -6 -135 0 -2
2 -39 2 -83 -1 -44 -3 -96 -2 -116 1 -20 3 -38 4 -40 1 -7 -6 -106 -8 -106 -2
0 3 -28 4 -62 2 -35 -2 -72 -3 -83 -3 -81 2 -164 2 -171 0 -5 -1 -13 0 -19 1
-18 3 -199 0 -203 -4 -2 -2 -16 -1 -31 4 -16 4 -34 4 -40 0z"/>
<path d="M910 2240 c0 -5 -6 -7 -14 -4 -10 4 -15 -1 -15 -13 0 -10 -1 -38 -1
-63 -1 -25 -1 -49 0 -55 5 -26 5 -41 -2 -56 -3 -8 -3 -21 2 -29 5 -8 5 -21 0
-31 -5 -9 -6 -19 -3 -23 4 -3 6 -25 5 -49 -5 -112 -5 -127 1 -133 3 -4 2 -14
-3 -24 -5 -10 -6 -20 -3 -24 3 -3 6 -27 5 -54 -5 -112 -5 -133 1 -139 4 -3 2
-13 -3 -23 -5 -10 -6 -20 -3 -24 3 -3 6 -26 5 -51 -1 -25 -3 -65 -4 -90 -1
-25 2 -48 5 -51 3 -4 2 -14 -3 -24 -5 -10 -6 -20 -3 -24 3 -3 6 -27 5 -54 -5
-112 -5 -133 1 -139 4 -3 2 -13 -3 -22 -5 -10 -5 -23 -1 -30 5 -7 5 -30 1 -51
-4 -21 -4 -44 1 -51 4 -7 4 -20 -1 -30 -5 -9 -6 -19 -3 -23 3 -3 6 -26 5 -51
-1 -25 -3 -65 -4 -90 -1 -25 2 -48 5 -51 3 -4 2 -14 -3 -24 -5 -10 -6 -20 -3
-24 3 -3 6 -27 5 -54 -1 -26 -2 -66 -2 -89 0 -24 0 -50 0 -58 0 -8 0 -22 0
-30 0 -8 0 -34 0 -57 0 -24 -1 -64 -2 -90 -1 -27 2 -51 5 -54 3 -4 2 -14 -3
-24 -5 -10 -6 -20 -3 -24 6 -6 8 -78 3 -101 -8 -36 -28 -35 1119 -35 1088 0
1119 1 1124 19 2 10 1 25 -4 32 -4 7 -4 20 1 29 5 9 5 22 1 29 -5 7 -5 30 -1
51 4 21 4 44 -1 51 -4 7 -4 20 1 30 5 9 7 19 3 22 -6 6 -6 27 -1 139 1 27 -2
51 -5 54 -3 4 -2 14 3 24 5 10 6 20 3 24 -3 3 -6 26 -5 51 1 25 3 65 4 90 1
25 -2 48 -5 51 -3 4 -2 14 3 24 5 10 7 20 3 23 -6 6 -6 27 -1 139 1 27 -2 51
-5 54 -3 4 -2 14 3 24 5 10 6 20 3 24 -3 3 -6 27 -5 54 1 26 3 66 4 89 1 24
-2 46 -5 49 -3 4 -2 14 3 24 5 10 7 20 3 23 -6 6 -6 27 -1 139 1 27 -2 51 -5
54 -3 4 -2 14 3 24 5 10 6 20 3 24 -3 3 -6 27 -5 54 1 26 2 66 2 90 0 23 0 49
0 57 0 8 0 22 0 30 0 8 0 34 0 58 0 23 1 63 2 89 1 27 -2 51 -5 54 -3 4 -2 14
3 24 5 10 6 20 3 24 -3 3 -6 26 -5 51 1 25 3 65 4 90 1 25 -1 47 -4 51 -3 3
-2 20 2 39 11 48 -10 76 -48 66 -28 -8 -60 -7 -69 3 -3 3 -13 1 -22 -4 -10 -5
-23 -5 -31 0 -8 5 -22 4 -32 -1 -10 -5 -18 -6 -18 -2 0 9 -85 7 -107 -2 -7 -2
-13 -1 -13 3 0 8 -85 6 -106 -2 -6 -2 -17 0 -24 4 -8 5 -21 5 -30 0 -9 -5 -22
-5 -30 0 -8 5 -21 5 -30 0 -9 -5 -22 -5 -30 0 -8 5 -21 5 -30 0 -9 -5 -22 -5
-30 0 -8 5 -22 4 -32 -1 -10 -5 -18 -6 -18 -2 0 9 -85 7 -107 -2 -7 -2 -13 -1
-13 3 0 4 -15 6 -32 5 -38 -2 -85 -3 -110 -3 -10 0 -26 0 -35 0 -10 0 -41 0
-70 1 -29 0 -57 -2 -63 -6 -5 -3 -10 -3 -10 2 0 4 -22 8 -50 8 -27 0 -50 -2
-50 -5 0 -7 -79 -4 -86 3 -3 3 -19 1 -35 -3 -16 -5 -29 -5 -29 0 0 4 -15 5
-33 0 -18 -4 -43 -3 -55 1 -12 5 -22 4 -22 -1 0 -5 -13 -5 -30 0 -16 5 -30 6
-30 2 0 -8 -78 -7 -86 1 -3 3 -19 1 -35 -3 -16 -5 -29 -5 -29 0 0 4 -15 5 -33
0 -18 -4 -43 -3 -55 1 -12 5 -22 5 -22 1 0 -4 -18 -7 -40 -7 -22 0 -40 2 -40
5 0 3 -11 5 -25 5 -14 0 -25 -3 -25 -7 0 -4 -10 -4 -22 1 -13 4 -34 5 -48 1
-14 -4 -35 -3 -47 1 -13 5 -23 5 -23 -1 0 -5 -12 -5 -30 0 -17 5 -32 5 -35 0
-3 -5 -16 -5 -30 0 -16 6 -25 6 -25 0z"/>
</g>
</svg>
